<svg width="512" height="512" viewBox="0 0 512 512" fill="none" xmlns="http://www.w3.org/2000/svg">
<g clip-path="url(#clip0_8_2)">
<path d="M512 0H0V512H512V0Z" fill="#0F86F5"/>
<path fill-rule="evenodd" clip-rule="evenodd" d="M196.478 128.13C230.29 129.807 256.468 153.724 280.619 177.147C305.075 200.866 330.843 226.415 332.665 260.213C334.559 295.343 316.316 328.814 290.08 352.62C264.878 375.487 230.694 382.832 196.478 383.783C161.001 384.77 121.895 383.38 97.4488 357.979C73.3398 332.928 76.4616 294.751 77.5519 260.213C78.5939 227.19 81.1994 193.049 103.433 168.356C126.818 142.384 161.325 126.385 196.478 128.13Z" fill="#4BA4F7"/>
<path fill-rule="evenodd" clip-rule="evenodd" d="M234.878 128.13C268.69 129.807 294.868 153.724 319.019 177.147C343.475 200.866 369.243 226.415 371.065 260.213C372.959 295.343 354.716 328.814 328.48 352.62C303.277 375.487 269.094 382.832 234.878 383.783C199.401 384.77 160.295 383.38 135.849 357.979C111.74 332.928 114.861 294.751 115.952 260.213C116.994 227.19 119.599 193.049 141.833 168.356C165.218 142.384 199.725 126.385 234.878 128.13Z" fill="#8AC4FA"/>
<path fill-rule="evenodd" clip-rule="evenodd" d="M273.278 128.13C307.09 129.807 333.268 153.724 357.419 177.147C381.875 200.866 407.643 226.415 409.465 260.213C411.359 295.343 393.116 328.814 366.88 352.62C341.678 375.487 307.494 382.832 273.278 383.783C237.801 384.77 198.695 383.38 174.249 357.979C150.14 332.928 153.262 294.751 154.352 260.213C155.394 227.19 157.999 193.049 180.233 168.356C203.618 142.384 238.125 126.385 273.278 128.13Z" fill="#CAE4FD"/>
<path fill-rule="evenodd" clip-rule="evenodd" d="M311.678 128.13C345.49 129.807 371.668 153.724 395.819 177.147C420.275 200.866 446.043 226.415 447.865 260.213C449.759 295.343 431.516 328.814 405.28 352.62C380.078 375.487 345.894 382.832 311.678 383.783C276.201 384.77 237.095 383.38 212.649 357.979C188.54 332.928 191.662 294.751 192.752 260.213C193.794 227.19 196.399 193.049 218.633 168.356C242.018 142.384 276.525 126.385 311.678 128.13Z" fill="white"/>
</g>
<defs>
<clipPath id="clip0_8_2">
<rect width="512" height="512" fill="white"/>
</clipPath>
</defs>
</svg>
